<?xml version="1.0" encoding="UTF-8"?>
<svg xmlns="http://www.w3.org/2000/svg" xmlns:xlink="http://www.w3.org/1999/xlink" width="2000" height="2000" viewBox="0 0 2000 2000">
<rect x="-200" y="-200" width="2400" height="2400" fill="rgb(100%, 100%, 100%)" fill-opacity="1"/>
<path fill-rule="nonzero" fill="rgb(12.939453%, 12.939453%, 12.939453%)" fill-opacity="1" d="M 1433.449219 1357.113281 L 566.546875 1357.113281 C 523.199219 1357.113281 487.9375 1321.851562 487.9375 1278.503906 L 487.9375 725.46875 C 487.9375 705.460938 495.40625 686.480469 508.992188 672 C 523.5625 656.058594 544.605469 646.78125 566.546875 646.78125 L 1433.449219 646.78125 C 1455.390625 646.78125 1476.441406 656.058594 1491.199219 672.21875 C 1504.589844 686.480469 1512.058594 705.460938 1512.058594 725.46875 L 1512.058594 1278.503906 C 1512.058594 1321.851562 1476.800781 1357.113281 1433.449219 1357.113281 Z M 566.546875 688.019531 C 556.164062 688.019531 546.21875 692.390625 539.253906 700.03125 C 532.695312 707.019531 529.179688 715.988281 529.179688 725.46875 L 529.179688 1278.503906 C 529.179688 1299.105469 545.945312 1315.871094 566.546875 1315.871094 L 1433.449219 1315.871094 C 1454.050781 1315.871094 1470.820312 1299.105469 1470.820312 1278.503906 L 1470.820312 725.46875 C 1470.820312 715.988281 1467.308594 707.019531 1460.941406 700.230469 C 1453.78125 692.390625 1443.828125 688.019531 1433.449219 688.019531 L 566.546875 688.019531 "/>
<path fill-rule="nonzero" fill="rgb(12.939453%, 12.939453%, 12.939453%)" fill-opacity="1" d="M 999.617188 1106.261719 C 972.984375 1106.273438 946.394531 1097.050781 922.710938 1079.601562 C 922.195312 1079.21875 921.691406 1078.808594 921.210938 1078.382812 L 851.835938 1016.417969 C 851.28125 1015.996094 850.746094 1015.550781 850.230469 1015.078125 L 509.980469 697.199219 C 501.734375 689.488281 501.210938 676.601562 508.804688 668.25 C 523.492188 652.101562 544.535156 642.839844 566.539062 642.839844 L 1433.460938 642.839844 C 1455.460938 642.839844 1476.511719 652.101562 1491.199219 668.25 C 1498.789062 676.601562 1498.269531 689.488281 1490.019531 697.199219 L 1149.769531 1015.078125 C 1149.21875 1015.582031 1148.660156 1016.054688 1148.078125 1016.488281 L 1082.449219 1074.613281 C 1056.691406 1095.519531 1028.28125 1106.261719 999.617188 1106.261719 Z M 947.921875 1046.945312 C 982.378906 1071.890625 1021.75 1070.761719 1055.78125 1043.160156 L 1121.921875 984.570312 C 1122.199219 984.320312 1122.488281 984.078125 1122.789062 983.839844 L 1442.460938 685.171875 C 1439.558594 684.449219 1436.519531 684.078125 1433.460938 684.078125 L 566.539062 684.078125 C 563.476562 684.078125 560.445312 684.449219 557.535156 685.171875 L 877.21875 983.839844 C 877.539062 984.101562 877.84375 984.359375 878.144531 984.621094 L 947.921875 1046.945312 "/>
<path fill-rule="nonzero" fill="rgb(12.939453%, 12.939453%, 12.939453%)" fill-opacity="1" d="M 1433.460938 1357.164062 L 566.539062 1357.164062 C 544.585938 1357.164062 523.542969 1347.859375 508.804688 1331.648438 C 501.210938 1323.300781 501.734375 1310.402344 509.980469 1302.703125 L 850.230469 984.929688 C 857.753906 977.921875 870.480469 977.761719 878.144531 984.621094 L 947.921875 1046.945312 C 982.347656 1071.867188 1021.71875 1070.769531 1055.78125 1043.160156 L 1121.921875 984.570312 C 1129.609375 977.75 1142.261719 977.921875 1149.769531 984.929688 L 1490.019531 1302.703125 C 1498.269531 1310.402344 1498.789062 1323.300781 1491.199219 1331.648438 C 1476.460938 1347.859375 1455.410156 1357.164062 1433.460938 1357.164062 Z M 557.464844 1314.785156 C 560.402344 1315.527344 563.453125 1315.921875 566.539062 1315.921875 L 1433.460938 1315.921875 C 1436.539062 1315.921875 1439.601562 1315.527344 1442.53125 1314.785156 L 1135.28125 1027.835938 L 1082.449219 1074.613281 C 1056.691406 1095.519531 1028.28125 1106.261719 999.617188 1106.261719 C 972.984375 1106.261719 946.394531 1097.050781 922.710938 1079.601562 C 922.195312 1079.21875 921.691406 1078.808594 921.210938 1078.382812 L 864.671875 1027.886719 L 557.464844 1314.785156 "/>
</svg>
